<svg xmlns="http://www.w3.org/2000/svg" xmlns:xlink="http://www.w3.org/1999/xlink" viewBox="0 0 362.77 89.63"><defs><style>.cls-1{fill:#1a1a37;}.cls-2{fill:#26b199;}.cls-3{fill:url(#Unbenannter_Verlauf_30);}</style><linearGradient id="Unbenannter_Verlauf_30" x1="18.65" y1="75.02" x2="87.56" y2="35.24" gradientUnits="userSpaceOnUse"><stop offset="0" stop-color="#26b199"/><stop offset="0.12" stop-color="#25a893"/><stop offset="0.33" stop-color="#239083"/><stop offset="0.59" stop-color="#20686a"/><stop offset="0.88" stop-color="#1c3146"/><stop offset="1" stop-color="#1a1a37"/></linearGradient></defs><g id="FINAL"><g id="Basic"><path class="cls-1" d="M115.7,34.33H138c3.7,0,6.55.92,8.53,2.75a8.91,8.91,0,0,1,3,6.82,8.61,8.61,0,0,1-2.12,5.85,9.46,9.46,0,0,1-4.15,2.57,10.76,10.76,0,0,1,6.1,3.43,9.44,9.44,0,0,1,2,6.1,10.53,10.53,0,0,1-1.39,5.37A10.16,10.16,0,0,1,146.06,71a12.46,12.46,0,0,1-4.51,1.26,52.56,52.56,0,0,1-5.33.53H115.7Zm12,15.08h5.17a6,6,0,0,0,3.87-.95,3.52,3.52,0,0,0,1.08-2.77,3.32,3.32,0,0,0-1.08-2.63,5.86,5.86,0,0,0-3.8-.94H127.7Zm0,15.11h6.06c2,0,3.49-.36,4.33-1.09a3.66,3.66,0,0,0,1.26-2.92,3.39,3.39,0,0,0-1.25-2.74c-.83-.69-2.29-1-4.37-1h-6Z"/><path class="cls-1" d="M164.46,54l-10.2-1.07a11.41,11.41,0,0,1,1.66-4.21A9.11,9.11,0,0,1,159.06,46a13.2,13.2,0,0,1,4-1.26,33.34,33.34,0,0,1,5.56-.44,45.13,45.13,0,0,1,7.71.53,10,10,0,0,1,4.86,2.25,7.87,7.87,0,0,1,2.15,3.34,12.21,12.21,0,0,1,.78,4.13V66.86a15.24,15.24,0,0,0,.25,3.08,14.28,14.28,0,0,0,1.09,2.85h-10a11.73,11.73,0,0,1-.79-1.64,12.63,12.63,0,0,1-.36-1.77,14,14,0,0,1-4.17,2.88,17.39,17.39,0,0,1-6.59,1.16q-5,0-7.57-2.31a7.35,7.35,0,0,1-2.58-5.7,7.48,7.48,0,0,1,1.86-5.22q1.86-2,6.87-3c4-.8,6.61-1.37,7.8-1.69a36.4,36.4,0,0,0,3.77-1.27,3.79,3.79,0,0,0-.81-2.76,4.11,4.11,0,0,0-2.86-.78,7.36,7.36,0,0,0-3.93.84A4.51,4.51,0,0,0,164.46,54Zm9.26,5.61c-1.47.53-3,1-4.59,1.4a10.53,10.53,0,0,0-4.12,1.7,2.69,2.69,0,0,0-.89,2,2.66,2.66,0,0,0,.88,2.06,3.74,3.74,0,0,0,2.58.8,6.61,6.61,0,0,0,3.32-.87,5.23,5.23,0,0,0,2.18-2.11,7,7,0,0,0,.64-3.24Z"/><path class="cls-1" d="M186.82,65.05l10.6-1a5.2,5.2,0,0,0,1.83,2.7,5.41,5.41,0,0,0,3.15.82,5.3,5.3,0,0,0,3.33-.92,2,2,0,0,0,.92-1.7,1.93,1.93,0,0,0-1.21-1.78,21.51,21.51,0,0,0-4.59-1.11,47.41,47.41,0,0,1-7.72-1.79,8.18,8.18,0,0,1-3.65-2.79A7.24,7.24,0,0,1,188,53a7.33,7.33,0,0,1,1.6-4.75,9.65,9.65,0,0,1,4.41-3,23.57,23.57,0,0,1,7.53-1,25.89,25.89,0,0,1,7.35.76,9.59,9.59,0,0,1,4,2.36,12.5,12.5,0,0,1,2.63,4.33l-10.12,1a3.46,3.46,0,0,0-1.32-2,5.35,5.35,0,0,0-3-.84,4.33,4.33,0,0,0-2.64.64,1.92,1.92,0,0,0-.82,1.56,1.66,1.66,0,0,0,1,1.54,16.85,16.85,0,0,0,4.56,1,31.49,31.49,0,0,1,7.92,1.67,8.73,8.73,0,0,1,4,3.07,7.54,7.54,0,0,1,1.38,4.38A8.64,8.64,0,0,1,215,68.44a9.85,9.85,0,0,1-4.59,3.63,22.07,22.07,0,0,1-8.54,1.35q-7.64,0-10.87-2.18A9.79,9.79,0,0,1,186.82,65.05Z"/><path class="cls-1" d="M219.55,34.33h10.68V41.6H219.55Zm0,10.6h10.68V72.79H219.55Z"/><path class="cls-1" d="M255.93,61.87,266.08,63a14.16,14.16,0,0,1-2.76,5.49,12.71,12.71,0,0,1-4.89,3.61,19.14,19.14,0,0,1-7.57,1.29,27.91,27.91,0,0,1-7.38-.83,13,13,0,0,1-5.08-2.67,13.66,13.66,0,0,1-3.33-4.34A15.33,15.33,0,0,1,233.86,59a15.53,15.53,0,0,1,1.47-7.15,13,13,0,0,1,2.94-3.76,13.51,13.51,0,0,1,3.83-2.48,21.37,21.37,0,0,1,8-1.28q6.83,0,10.4,2.44a12.82,12.82,0,0,1,5,7.13l-10,1.34a4.63,4.63,0,0,0-1.72-2.69,5.58,5.58,0,0,0-3.34-.9,5.38,5.38,0,0,0-4.29,1.9c-1.09,1.26-1.64,3.18-1.64,5.74a7.43,7.43,0,0,0,1.63,5.21,5.34,5.34,0,0,0,4.14,1.78,5.7,5.7,0,0,0,3.53-1.07A6.49,6.49,0,0,0,255.93,61.87Z"/></g><path id="HR" class="cls-2" d="M340,61.64a15.4,15.4,0,0,0-1.66-2.38,11.74,11.74,0,0,0-1.9-2,11.89,11.89,0,0,0-3.09-1.43,14.82,14.82,0,0,0,4.17-1.51,10.83,10.83,0,0,0,3.75-3.77A10.71,10.71,0,0,0,342.64,45a10.5,10.5,0,0,0-1.78-6.23,9,9,0,0,0-4.7-3.51,28.71,28.71,0,0,0-8.41-.94H308V47.79H295V34.33H283.09V72.79H295V57.23h13V72.79h11.93V57.18h1.05a5.09,5.09,0,0,1,2.91.88A9.42,9.42,0,0,1,326,61l6.35,11.76h13.42ZM330,48.18a3.06,3.06,0,0,1-1.93,1.2,17.27,17.27,0,0,1-3.14.53h-5V42.09h5.22c2.16,0,3.64.33,4.43,1A3.57,3.57,0,0,1,330.71,46,3.47,3.47,0,0,1,330,48.18Z"/><path class="cls-3" d="M98.69,58.37A14.41,14.41,0,0,1,84.27,72.78H36.5s0,0,0,0H17.84A.82.82,0,0,1,17,72V53.57A19.21,19.21,0,0,1,36.23,34.35l.89,0h0a24,24,0,0,1,47.15,6.5,22.49,22.49,0,0,1-.2,3.09h.2A14.41,14.41,0,0,1,98.69,58.37Z"/></g></svg>