<?xml version="1.0" encoding="utf-8"?>
<svg xmlns="http://www.w3.org/2000/svg" width="162" height="56" viewBox="0 0 162 56" fill="none">
<g clip-path="url(#clip0_5604_1958)">
<path fill-rule="evenodd" clip-rule="evenodd" d="M48.7779 26.6599L50.3112 27.4951C51.0093 27.8691 51.3833 28.6545 51.2461 29.4149L49.8624 37.2186C49.7128 38.0413 49.0521 38.6521 48.2294 38.7269L46.0229 38.9388C45.8235 39.1632 45.6115 39.3752 45.3996 39.5746C43.5921 41.2949 41.1986 42.4916 38.4561 43.2022C36.3618 43.7382 34.0681 44 31.6622 44C31.3505 44 31.0264 44 30.7148 43.9875C27.5609 43.9003 24.6314 43.3393 22.1382 42.2797C20.2808 41.4944 18.6727 40.4223 17.4012 39.051L15.0576 38.7643C14.2598 38.6646 13.6115 38.0662 13.4744 37.2684L12.0782 29.4274C11.9411 28.6545 12.3151 27.8691 13.0132 27.4951L14.5465 26.6599C15.3568 22.7581 17.4635 19.33 20.393 16.8368C21.3404 16.039 22.3626 15.3409 23.4596 14.755V13.7826C23.4596 12.9723 25.9777 12.2743 29.4183 12.0623C30.1413 12.0249 30.8893 12 31.6622 12C33.8562 12 35.8507 12.187 37.3217 12.4986C38.8924 12.8228 39.8647 13.284 39.8647 13.7951V14.7674C41.4978 15.64 42.9688 16.7495 44.2403 18.0709C46.4966 20.402 48.1047 23.3564 48.7779 26.6599ZM21.7893 37.231C24.083 38.864 27.4987 39.7242 31.6623 39.7242C35.8259 39.7242 39.2416 38.864 41.5602 37.231C43.7916 35.6353 44.8762 33.3416 44.8762 30.1877C44.8762 22.9076 38.9549 16.9863 31.6748 16.9863C24.3947 16.9863 18.4734 22.9076 18.4734 30.1877C18.4734 33.3416 19.5579 35.6478 21.7893 37.231Z" fill="white"/>
<path d="M31.6617 36.6825C29.0688 36.6825 26.6629 35.1617 25.5285 32.8181L27.6228 31.8208C28.3832 33.3915 29.929 34.3763 31.6617 34.3763C33.3945 34.3763 34.9527 33.404 35.7007 31.8208L37.7949 32.8181C36.6605 35.1617 34.2547 36.6825 31.6617 36.6825Z" fill="white"/>
<path d="M67.0724 37.0604C65.8732 37.0604 64.7636 36.8277 63.7436 36.3624C62.7412 35.8792 61.918 35.208 61.2736 34.349L63.2604 31.9597C64.2984 33.3915 65.542 34.1074 66.9916 34.1074C68.9424 34.1074 69.918 32.953 69.918 30.6443V20.9262V18H73.408V30.4564C73.408 32.6577 72.8708 34.3132 71.7972 35.4228C70.7232 36.5146 69.1484 37.0604 67.0724 37.0604Z" fill="white"/>
<path d="M82.451 22.2953C84.5626 22.2953 86.1734 22.8054 87.283 23.8255C88.4106 24.8277 88.9746 26.349 88.9746 28.3893V36.792H85.8066V35.047C85.395 35.6734 84.8046 36.1566 84.035 36.4967C83.283 36.8188 82.3706 36.9799 81.2966 36.9799C80.2226 36.9799 79.283 36.8009 78.4778 36.443C77.6726 36.0671 77.0462 35.5571 76.5986 34.9128C76.169 34.2506 75.9542 33.5079 75.9542 32.6846C75.9542 31.396 76.4286 30.3669 77.377 29.5973C78.3434 28.8099 79.8558 28.4161 81.9142 28.4161H85.6186V28.2014C85.6186 27.1991 85.3146 26.4295 84.7058 25.8926C84.1154 25.3557 83.2294 25.0873 82.0482 25.0873C81.243 25.0873 80.4466 25.2125 79.659 25.4631C78.8894 25.7137 78.2362 26.0627 77.6994 26.5101L76.3838 24.0671C77.1354 23.4944 78.0394 23.0559 79.0954 22.7517C80.151 22.4475 81.2698 22.2953 82.451 22.2953ZM81.9946 34.5369C82.8358 34.5369 83.5786 34.349 84.2226 33.9732C84.885 33.5794 85.3502 33.0246 85.6186 32.3087V30.6443H82.1558C80.2226 30.6443 79.2562 31.2797 79.2562 32.5503C79.2562 33.1589 79.4978 33.6421 79.981 34C80.4642 34.358 81.1354 34.5369 81.9946 34.5369Z" fill="white"/>
<path d="M97.7111 36.9799C96.5479 36.9799 95.4115 36.8277 94.3015 36.5235C93.1919 36.2193 92.3063 35.8345 91.6439 35.3691L92.9327 32.8188C93.5767 33.2483 94.3463 33.5973 95.2411 33.8658C96.1539 34.1163 97.0487 34.2416 97.9259 34.2416C99.9303 34.2416 100.933 33.7137 100.933 32.6577C100.933 32.1566 100.673 31.8076 100.154 31.6107C99.6531 31.4139 98.8387 31.226 97.7111 31.047C96.5299 30.868 95.5635 30.6622 94.8119 30.4295C94.0779 30.1969 93.4335 29.7942 92.8787 29.2215C92.3419 28.6309 92.0735 27.8166 92.0735 26.7785C92.0735 25.4184 92.6371 24.3356 93.7647 23.5302C94.9103 22.7069 96.4495 22.2953 98.3823 22.2953C99.3667 22.2953 100.351 22.4117 101.335 22.6443C102.32 22.8591 103.125 23.1544 103.752 23.5302L102.463 26.0805C101.246 25.3647 99.8767 25.0067 98.3555 25.0067C97.3711 25.0067 96.6195 25.1589 96.1003 25.4631C95.5991 25.7495 95.3487 26.1343 95.3487 26.6175C95.3487 27.1544 95.6171 27.5392 96.1539 27.7718C96.7087 27.9866 97.5591 28.1924 98.7043 28.3893C99.8499 28.5683 100.79 28.7741 101.523 29.0067C102.257 29.2394 102.884 29.6331 103.402 30.1879C103.939 30.7427 104.208 31.5302 104.208 32.5503C104.208 33.8926 103.626 34.9665 102.463 35.7718C101.3 36.5772 99.7155 36.9799 97.7111 36.9799Z" fill="white"/>
<path d="M115.043 22.2953C116.439 22.2953 117.683 22.5996 118.775 23.2081C119.885 23.8166 120.753 24.6756 121.379 25.7853C122.005 26.8949 122.319 28.1745 122.319 29.6242C122.319 31.0739 122.005 32.3624 121.379 33.4899C120.753 34.5996 119.885 35.4586 118.775 36.0671C117.683 36.6756 116.439 36.9799 115.043 36.9799C113.111 36.9799 111.58 36.3356 110.453 35.047V42H107.097V22.4564H110.292V24.3356C110.847 23.6555 111.527 23.1454 112.332 22.8054C113.155 22.4653 114.059 22.2953 115.043 22.2953ZM114.667 34.1074C115.903 34.1074 116.914 33.6958 117.701 32.8725C118.507 32.0492 118.909 30.9665 118.909 29.6242C118.909 28.2819 118.507 27.1991 117.701 26.3759C116.914 25.5526 115.903 25.141 114.667 25.141C113.862 25.141 113.137 25.3289 112.493 25.7047C111.849 26.0627 111.339 26.5817 110.963 27.2618C110.587 27.9419 110.399 28.7293 110.399 29.6242C110.399 30.519 110.587 31.3065 110.963 31.9866C111.339 32.6667 111.849 33.1947 112.493 33.5705C113.137 33.9284 113.862 34.1074 114.667 34.1074Z" fill="white"/>
<path d="M138.977 29.7047C138.977 29.9374 138.96 30.2685 138.924 30.698H127.675C127.872 31.7539 128.383 32.5951 129.206 33.2215C130.047 33.83 131.085 34.1343 132.32 34.1343C133.895 34.1343 135.192 33.6152 136.213 32.5772L138.011 34.6443C137.367 35.4139 136.553 35.9955 135.568 36.3893C134.584 36.783 133.474 36.9799 132.239 36.9799C130.664 36.9799 129.277 36.6667 128.078 36.0403C126.879 35.4139 125.948 34.5459 125.286 33.4363C124.642 32.3087 124.32 31.0381 124.32 29.6242C124.32 28.2282 124.633 26.9754 125.259 25.8658C125.904 24.7383 126.79 23.8613 127.917 23.2349C129.044 22.6085 130.315 22.2953 131.729 22.2953C133.125 22.2953 134.369 22.6085 135.46 23.2349C136.57 23.8434 137.429 24.7114 138.038 25.8389C138.664 26.9486 138.977 28.2371 138.977 29.7047ZM131.729 24.9799C130.655 24.9799 129.742 25.302 128.991 25.9463C128.257 26.5727 127.81 27.4139 127.648 28.4698H135.783C135.64 27.4318 135.201 26.5906 134.467 25.9463C133.734 25.302 132.821 24.9799 131.729 24.9799Z" fill="white"/>
<path d="M145.395 24.5503C146.361 23.0469 148.062 22.2953 150.496 22.2953V25.4899C150.209 25.4362 149.95 25.4094 149.717 25.4094C148.411 25.4094 147.39 25.7942 146.657 26.5637C145.923 27.3154 145.556 28.4071 145.556 29.8389V36.7919H142.2V22.4563H145.395V24.5503Z" fill="white"/>
</g>
<defs>
<clipPath id="clip0_5604_1958">
<rect width="138.8" height="32" fill="white" transform="translate(12.05 12)"/>
</clipPath>
</defs>
</svg>